# xmcd
#
# Track frame offsets:
#	177
#	22095
#	39567
#	59790
#	78300
#	93182
#	116055
#	133870
#	161775
#	179475
#	196405
#	216782
#	241687
#
# Disc length: 3275 seconds
#
# Revision: 1
# Processed by: cddbd v1.5.2PL0 Copyright (c) Steve Scherf et al.
# Submitted via: audiograbber 1.83.01
#
DISCID=ba0cc90d
DTITLE=Burns - BURNS - Ready For Duty
DYEAR=1900
DGENRE=Blues
TTITLE0=The Edge Of Disaster
TTITLE1=Ready For Duty
TTITLE2=Never Return To My Life
TTITLE3=Nightmare Boogie
TTITLE4=These Boots...
TTITLE5=Deadly Paradise
TTITLE6=Get Up (For Your Rights)
TTITLE7=He Loves Me
TTITLE8=Fast Traveller
TTITLE9=Trust Me
TTITLE10=Too Late
TTITLE11=Burning Blues
TTITLE12=These Boots...(intro)
EXTD=
EXTT0=
EXTT1=
EXTT2=
EXTT3=
EXTT4=
EXTT5=
EXTT6=
EXTT7=
EXTT8=
EXTT9=
EXTT10=
EXTT11=
EXTT12=
PLAYORDER=
